<svg width="33" height="33" viewBox="0 0 33 33" fill="none" xmlns="http://www.w3.org/2000/svg">
<g id="16 / circle-minus">
<path id="icon" fill-rule="evenodd" clip-rule="evenodd" d="M16.5 33C7.3873 33 0 25.6127 0 16.5C0 7.3873 7.3873 0 16.5 0C25.6127 0 33 7.3873 33 16.5C33 25.6127 25.6127 33 16.5 33ZM16.5 28.875C23.3345 28.875 28.875 23.3345 28.875 16.5C28.875 9.66548 23.3345 4.125 16.5 4.125C9.66548 4.125 4.125 9.66548 4.125 16.5C4.125 23.3345 9.66548 28.875 16.5 28.875ZM8.25 14.4375V18.5625H24.75V14.4375H8.25Z" fill="#FF7A00"/>
</g>
</svg>
