<svg width="48" height="48" viewBox="0 0 48 48" fill="none" xmlns="http://www.w3.org/2000/svg">
<g id="16 / circle-x">
<path id="icon" fill-rule="evenodd" clip-rule="evenodd" d="M24 48C10.7452 48 0 37.2548 0 24C0 10.7452 10.7452 0 24 0C37.2548 0 48 10.7452 48 24C48 37.2548 37.2548 48 24 48ZM24 42C33.9411 42 42 33.9411 42 24C42 14.0589 33.9411 6 24 6C14.0589 6 6 14.0589 6 24C6 33.9411 14.0589 42 24 42ZM17.1214 35.1213L24.0001 28.2427L30.8788 35.1213L35.1214 30.8787L28.2428 24L35.1214 17.1213L30.8788 12.8787L24.0001 19.7574L17.1214 12.8787L12.8788 17.1213L19.7575 24L12.8788 30.8787L17.1214 35.1213Z" fill="#4F4F4F"/>
</g>
</svg>
