<svg width="48" height="48" viewBox="0 0 48 48" fill="none" xmlns="http://www.w3.org/2000/svg">
<g id="24 / shopping / coupon">
<path id="icon" fill-rule="evenodd" clip-rule="evenodd" d="M46 36C46 38.2091 44.2091 40 42 40H6C3.79086 40 2 38.2091 2 36V29.7762L2.99855 29.1985C4.84225 28.132 6 26.1679 6 24C6 21.8321 4.84225 19.868 2.99855 18.8015L2 18.2238V12C2 9.79086 3.79086 8 6 8H42C44.2091 8 46 9.79086 46 12V18.2238L45.0015 18.8015C43.1577 19.868 42 21.8321 42 24C42 26.1679 43.1577 28.132 45.0015 29.1985L46 29.7762V36ZM38 24C38 20.799 39.518 17.8608 42 15.9989V12H30C30 13.1046 29.1046 14 28 14C26.8954 14 26 13.1046 26 12H6V15.9989C8.48201 17.8608 10 20.799 10 24C10 27.201 8.48201 30.1392 6 32.0011V36H26C26 34.8954 26.8954 34 28 34C29.1046 34 30 34.8954 30 36H42V32.0011C39.518 30.1392 38 27.201 38 24ZM28 32C29.1046 32 30 31.1046 30 30C30 28.8954 29.1046 28 28 28C26.8954 28 26 28.8954 26 30C26 31.1046 26.8954 32 28 32ZM30 24C30 25.1046 29.1046 26 28 26C26.8954 26 26 25.1046 26 24C26 22.8954 26.8954 22 28 22C29.1046 22 30 22.8954 30 24ZM28 20C29.1046 20 30 19.1046 30 18C30 16.8954 29.1046 16 28 16C26.8954 16 26 16.8954 26 18C26 19.1046 26.8954 20 28 20Z" fill="#4F4F4F"/>
</g>
</svg>
