<svg width="48" height="48" viewBox="0 0 48 48" fill="none" xmlns="http://www.w3.org/2000/svg">
<g id="24 / shopping / discount">
<path id="icon" fill-rule="evenodd" clip-rule="evenodd" d="M24 46C11.8497 46 2 36.1503 2 24C2 11.8497 11.8497 2 24 2C36.1503 2 46 11.8497 46 24C46 36.1503 36.1503 46 24 46ZM24 42C33.9411 42 42 33.9411 42 24C42 14.0589 33.9411 6 24 6C14.0589 6 6 14.0589 6 24C6 33.9411 14.0589 42 24 42ZM26 30C26 33.3137 28.6863 36 32 36C35.3137 36 38 33.3137 38 30C38 26.6863 35.3137 24 32 24C28.6863 24 26 26.6863 26 30ZM32 32C33.1046 32 34 31.1046 34 30C34 28.8954 33.1046 28 32 28C30.8954 28 30 28.8954 30 30C30 31.1046 30.8954 32 32 32ZM10 18C10 21.3137 12.6863 24 16 24C19.3137 24 22 21.3137 22 18C22 14.6863 19.3137 12 16 12C12.6863 12 10 14.6863 10 18ZM16 20C17.1046 20 18 19.1046 18 18C18 16.8954 17.1046 16 16 16C14.8954 16 14 16.8954 14 18C14 19.1046 14.8954 20 16 20ZM20.2362 36L32.2362 12H27.764L15.764 36H20.2362Z" fill="#ECECEC"/>
</g>
</svg>
