<svg width="48" height="48" viewBox="0 0 48 48" fill="none" xmlns="http://www.w3.org/2000/svg">
<g id="16 / pencil">
<path id="icon" fill-rule="evenodd" clip-rule="evenodd" d="M33 3C34.5864 3 35.9608 3.62848 37.0633 4.73974L43.2651 10.9415C44.3772 12.0536 45 13.4182 45 15C45 16.5716 44.3821 18.2018 43.2651 19.3188L20.6706 41.9025C19.0998 43.7145 16.8731 44.8278 14.2692 45.0047H6H3V42.0047L3.00974 33.4941C3.20094 31.1275 4.30119 28.9269 5.94589 27.4797L28.6828 4.74302C29.7985 3.62154 31.4262 3 33 3ZM10.0547 31.8483C9.43804 32.3937 9.05655 33.1567 9 33.7357V39.0075L14.0573 39.0122C14.8611 38.9553 15.6092 38.5812 16.2825 37.8162L29.4281 24.6706L23.3326 18.5751L10.0547 31.8483ZM27.576 14.3332L33.6707 20.428L38.9685 15.1302L32.8747 9.03641L27.576 14.3332Z" fill="#4F4F4F"/>
</g>
</svg>
