<svg width="48" height="48" viewBox="0 0 48 48" fill="none" xmlns="http://www.w3.org/2000/svg">
<g id="24 / shopping / tote">
<path id="icon" fill-rule="evenodd" clip-rule="evenodd" d="M14.0673 12C14.6553 7.63038 19.0221 4 24.0002 4C28.9782 4 33.345 7.63038 33.933 12H39.6941C41.9033 12 43.6941 13.7909 43.6941 16C43.6941 16.1893 43.6807 16.3783 43.6539 16.5657L40.2254 40.5657C39.9438 42.5363 38.2562 44 36.2656 44H11.7347C9.74414 44 8.05646 42.5363 7.77495 40.5657L4.34638 16.5657C4.03396 14.3787 5.55355 12.3526 7.74049 12.0402C7.92786 12.0134 8.1169 12 8.30617 12H14.0673ZM29.856 12C29.248 9.87615 26.7963 8 24.0002 8C21.2042 8 18.7524 9.87615 18.1445 12H29.856ZM8.30616 16H14.0001V20H18.0001V16H30.0001V20H34.0001V16H39.6941L36.2656 40H11.7347L8.30616 16Z" fill="#4F4F4F"/>
</g>
</svg>
