<svg width="48" height="48" viewBox="0 0 48 48" fill="none" xmlns="http://www.w3.org/2000/svg">
<g id="24 / basic / user">
<path id="icon" fill-rule="evenodd" clip-rule="evenodd" d="M24 46C11.8497 46 2 36.1503 2 24C2 11.8497 11.8497 2 24 2C36.1503 2 46 11.8497 46 24C46 36.1503 36.1503 46 24 46ZM38.799 34.2493C40.8172 31.3406 42 27.8084 42 24C42 14.0589 33.9411 6 24 6C14.0589 6 6 14.0589 6 24C6 27.8084 7.18277 31.3406 9.20101 34.2493C11.4519 31.2761 16.7412 30 24 30C31.2588 30 36.5481 31.2761 38.799 34.2493ZM35.9294 37.4795C35.344 35.3747 31.1388 34 24 34C16.8612 34 12.656 35.3747 12.0706 37.4795C15.2466 40.2924 19.4239 42 24 42C28.5761 42 32.7534 40.2923 35.9294 37.4795ZM24 12C19.1582 12 16 15.5115 16 20C16 26.8547 19.5217 30 24 30C28.4362 30 32 26.9592 32 20.4C32 15.8432 28.8284 12 24 12ZM20 20C20 24.5385 21.6364 26 24 26C26.3554 26 28 24.5968 28 20.4C28 17.9008 26.4313 16 24 16C21.4675 16 20 17.6316 20 20Z" fill="#4F4F4F"/>
</g>
</svg>
